<svg width="400" height="250" xmlns="http://www.w3.org/2000/svg">
<defs>
<linearGradient id="ocean" x1="0%" y1="0%" x2="0%" y2="100%">
<stop offset="0%" style="stop-color:#87CEEB;stop-opacity:1" />
<stop offset="50%" style="stop-color:#4682B4;stop-opacity:1" />
<stop offset="100%" style="stop-color:#191970;stop-opacity:1" />
</linearGradient>
</defs>
<rect width="100%" height="100%" fill="url(#ocean)"/>
<ellipse cx="200" cy="200" rx="150" ry="30" fill="#F5DEB3"/>
<polygon points="80,180 120,160 160,170 200,150 240,160 280,150 320,160 360,150 400,170 400,250 0,250" fill="#F5DEB3"/>
<circle cx="100" cy="40" r="25" fill="#FFD700"/>
<path d="M 50 200 Q 100 190 150 200 T 250 200 T 350 200" stroke="#FFFFFF" stroke-width="3" fill="none" opacity="0.7"/>
<path d="M 30 210 Q 80 200 130 210 T 230 210 T 330 210" stroke="#FFFFFF" stroke-width="2" fill="none" opacity="0.5"/>
<circle cx="80" cy="170" r="3" fill="#FFFFFF"/>
<circle cx="150" cy="175" r="2" fill="#FFFFFF"/>
<circle cx="220" cy="172" r="3" fill="#FFFFFF"/>
<circle cx="300" cy="168" r="2" fill="#FFFFFF"/>
<text x="200" y="230" font-family="Arial" font-size="18" fill="white" text-anchor="middle" font-weight="bold">自然风光</text>
</svg>
