<svg width="400" height="250" xmlns="http://www.w3.org/2000/svg">
<defs>
<linearGradient id="night" x1="0%" y1="0%" x2="0%" y2="100%">
<stop offset="0%" style="stop-color:#191970;stop-opacity:1" />
<stop offset="100%" style="stop-color:#000080;stop-opacity:1" />
</linearGradient>
</defs>
<rect width="100%" height="100%" fill="url(#night)"/>
<circle cx="50" cy="30" r="8" fill="#FFFF00"/>
<circle cx="120" cy="20" r="4" fill="#FFFFFF"/>
<circle cx="200" cy="25" r="3" fill="#FFFFFF"/>
<circle cx="300" cy="15" r="5" fill="#FFFFFF"/>
<circle cx="350" cy="35" r="3" fill="#FFFFFF"/>
<rect x="50" y="150" width="30" height="100" fill="#2F4F4F"/>
<rect x="100" y="120" width="40" height="130" fill="#2F4F4F"/>
<rect x="160" y="140" width="35" height="110" fill="#2F4F4F"/>
<rect x="220" y="100" width="45" height="150" fill="#2F4F4F"/>
<rect x="290" y="130" width="38" height="120" fill="#2F4F4F"/>
<rect x="350" y="110" width="42" height="140" fill="#2F4F4F"/>
<rect x="105" y="130" width="8" height="8" fill="#FFFF00"/>
<rect x="115" y="140" width="8" height="8" fill="#FFFF00"/>
<rect x="105" y="150" width="8" height="8" fill="#FFFF00"/>
<rect x="225" y="110" width="8" height="8" fill="#FFFF00"/>
<rect x="235" y="120" width="8" height="8" fill="#FFFF00"/>
<rect x="225" y="130" width="8" height="8" fill="#FFFF00"/>
<text x="200" y="230" font-family="Arial" font-size="18" fill="white" text-anchor="middle" font-weight="bold">城市夜景</text>
</svg>
